<?xml version="1.0" encoding="UTF-8"?>
<?xml-stylesheet href="ADM'S.css" type="text/css"?>
<svg width="5.9267mm" height="5.9267mm" clip-rule="evenodd" fill-rule="evenodd" image-rendering="optimizeQuality" shape-rendering="geometricPrecision" text-rendering="geometricPrecision" version="1.0" viewBox="0 0 4.532 4.532" xml:space="preserve" xmlns="http://www.w3.org/2000/svg">
 
  
  
   <polygon class="fil0" points="0.01 4.532 -0 4.532 -0 4.522 0.01 4.522"/>
   <polygon class="fil0" points="4.522 0 4.532 0 4.532 0.01 4.522 0.01"/>
  
  <path class="fil1" d="m2.266 2.8015-0.243 0.406 0.243 0.406 0.243-0.406zm-1.722 1.633c0.015 0.059 0.068 0.1 0.129 0.1h0.786l-0.249-0.474-1e-3 -1e-3 -0.247-0.471h-0.634l0.215 0.846zm1.202 0.1h1.045c1e-3 -0.019 6e-3 -0.038 0.015-0.056l0.57-1.088c0.027-0.051 0.082-0.077 0.136-0.071h0.759l0.257-1.011c0.031-0.121-0.108-0.214-0.208-0.139l-0.951 0.707-0.988-1.729c-0.051-0.089-0.18-0.089-0.23 0l-0.988 1.729-0.951-0.707c-0.1-0.074-0.238 0.019-0.208 0.139l0.257 1.011h0.764c0.054-7e-3 0.109 0.02 0.136 0.071l0.57 1.088c9e-3 0.018 0.014 0.037 0.015 0.056zm1.333 0h0.78c0.061 0 0.114-0.041 0.129-0.1l0.215-0.846h-0.628l-0.247 0.471-1e-3 1e-3 -0.249 0.474zm0.743-2.324-0.371 0.276-0.25-0.437 0.287-0.382c0.069-0.092 0.214-0.059 0.236 0.054l0.098 0.49zm-2.491-0.162-0.25 0.437-0.371-0.276 0.098-0.49c0.022-0.112 0.168-0.145 0.236-0.054l0.287 0.382zm0.935 0.752-0.243 0.406 0.243 0.406 0.243-0.406zm0.512 0.474-0.398 0.664c-0.051 0.086-0.176 0.086-0.228 0l-0.398-0.664c-0.025-0.042-0.025-0.095 0-0.137l0.398-0.664c0.051-0.086 0.176-0.086 0.228 0l0.398 0.664c0.025 0.042 0.025 0.095 0 0.137zm-0.756-0.068 0.243 0.406 0.243-0.406-0.243-0.406z"/>
 
</svg>
