<?xml version="1.0" encoding="UTF-8"?>
<?xml-stylesheet href="LOCUÇÃO.css" type="text/css"?>
<svg width="5.9267mm" height="5.9267mm" clip-rule="evenodd" fill-rule="evenodd" image-rendering="optimizeQuality" shape-rendering="geometricPrecision" text-rendering="geometricPrecision" version="1.0" viewBox="0 0 4.665 4.665" xml:space="preserve" xmlns="http://www.w3.org/2000/svg">
 
  
  
   <polygon class="fil0" points="0.01 4.665 -0 4.665 -0 4.655 0.01 4.655"/>
   <polygon class="fil0" points="4.655 0 4.665 0 4.665 0.01 4.655 0.01"/>
  
  <path class="fil0" d="m0.698 1.8459c0 0.203 0.061 0.431 0.158 0.597 0.171 0.291 0.32 0.351 0.355 0.399-0.112 0.054-0.08 0.028-0.212 0.108-0.206 0.124-0.369 0.268-0.513 0.463-0.31 0.421-0.342 0.74-0.342 1.253h3.466c0-0.506-0.031-0.828-0.337-1.245-0.158-0.216-0.378-0.405-0.615-0.528-0.044-0.022-0.077-0.032-0.116-0.051 0.025-0.035 0.093-0.063 0.198-0.183-0.125-0.068-0.211-0.201-0.211-0.353 0-0.222 0.18-0.401 0.401-0.401 0.041 0 0.081 6e-3 0.119 0.018 0.012-0.257-0.054-0.522-0.202-0.735-0.016-0.024-0.039-0.055-0.06-0.08-0.09-0.107-0.106-0.125-0.23-0.217-0.425-0.316-1.041-0.294-1.433 0.055l-0.213 0.233c-0.13 0.183-0.214 0.441-0.214 0.668zm3.333 1.173v0.756l0.031-0.033c0.038-0.039 0.041-0.053 0.075-0.092 0.087-0.099 0.269-0.261 0.269-0.429 0-0.114-0.06-0.228-0.139-0.302-0.059 0.068-0.147 0.105-0.236 0.099zm0 0.941v0.704h-0.28v-1.752l-0.203-0.092c-0.143-0.065-0.207-0.236-0.142-0.379s0.236-0.207 0.379-0.142l0.382 0.174c0.13 0.059 0.194 0.205 0.156 0.339 0.108 0.092 0.198 0.238 0.198 0.359 0 0.368-0.352 0.59-0.491 0.789z"/>
 
</svg>
