<?xml version="1.0" encoding="UTF-8"?>
<?xml-stylesheet href="LOG'S.css" type="text/css"?>
<svg width="5.9267mm" height="5.9267mm" clip-rule="evenodd" fill-rule="evenodd" image-rendering="optimizeQuality" shape-rendering="geometricPrecision" text-rendering="geometricPrecision" version="1.0" viewBox="0 0 9.478 9.478" xml:space="preserve" xmlns="http://www.w3.org/2000/svg">
 
  
  
   <polygon class="fil0" points="0.02 9.478 -0 9.478 -0 9.458 0.02 9.458"/>
   <polygon class="fil0" points="9.458 0 9.478 0 9.478 0.02 9.458 0.02"/>
  
  <path class="fil1" d="m7.352 2.4163h-1.042v-0.142c0-0.146-0.119-0.265-0.265-0.265h-0.427c-0.114-0.378-0.465-0.653-0.879-0.653s-0.765 0.276-0.879 0.653h-0.427c-0.146 0-0.265 0.119-0.265 0.265v0.142h-1.042c-0.146 0-0.265 0.119-0.265 0.265v6.533c0 0.146 0.119 0.265 0.265 0.265h5.227c0.146 0 0.265-0.119 0.265-0.265v-6.533c0-0.146-0.119-0.265-0.265-0.265zm-3.655 0.123h0.388c0.146 0 0.265-0.119 0.265-0.265 0-0.214 0.174-0.388 0.388-0.388s0.388 0.174 0.388 0.388c0 0.146 0.119 0.265 0.265 0.265h0.388v0.415h-2.083v-0.415zm2.091 5.35h-2.099c-0.146 0-0.265-0.119-0.265-0.265s0.119-0.265 0.265-0.265h2.099c0.146 0 0.265 0.119 0.265 0.265s-0.119 0.265-0.265 0.265zm0-1.407h-2.099c-0.146 0-0.265-0.119-0.265-0.265s0.119-0.265 0.265-0.265h2.099c0.146 0 0.265 0.119 0.265 0.265s-0.119 0.265-0.265 0.265zm0-1.407h-2.099c-0.146 0-0.265-0.119-0.265-0.265s0.119-0.265 0.265-0.265h2.099c0.146 0 0.265 0.119 0.265 0.265s-0.119 0.265-0.265 0.265z"/>
 
</svg>
